<svg xmlns="http://www.w3.org/2000/svg" data-name="ps-icon:online"><symbol id="ps-icon:online" viewBox="0 0 50 50"><path d="M45 25a20 20 0 10-20.001 20.002A20.022 20.022 0 0045 25zM17.964 14.184a26.175 26.175 0 01-3.77-1.142 16.195 16.195 0 015.862-3.389 31.193 31.193 0 00-2.092 4.531zm-1.098 3.7a31.903 31.903 0 00-.786 5.24l-7.098-.015a16.022 16.022 0 012.584-7.02 1.908 1.908 0 00.34.191 28.125 28.125 0 004.96 1.604zm11.027-3.076c-.966.09-1.938.143-2.888.143-1.035 0-2.081-.058-3.128-.158a27.616 27.616 0 013.008-5.569l-.009.012a28.067 28.067 0 013.017 5.572zm-7.938 8.3a27.873 27.873 0 01.717-4.556 36.721 36.721 0 004.33.27 34.598 34.598 0 004.099-.264 28.134 28.134 0 01.717 4.55zm18.462-7.04a15.958 15.958 0 012.598 7.04h-7.337a32.062 32.062 0 00-.772-5.2 29.26 29.26 0 005.346-1.758 1.432 1.432 0 00.165-.082zm-2.71-3.118a26.373 26.373 0 01-3.91 1.237 31.758 31.758 0 00-2.143-4.632v.003a16.084 16.084 0 016.054 3.392zm-3.674 22.862a25.952 25.952 0 013.77 1.144 16.235 16.235 0 01-5.86 3.389 31.114 31.114 0 002.09-4.533zm1.1-3.698a32.553 32.553 0 00.787-5.24l7.095.015a15.979 15.979 0 01-2.583 7.019 1.888 1.888 0 00-.341-.192 28.165 28.165 0 00-4.957-1.602zM22.105 35.19a30.914 30.914 0 012.891-.142c1.032 0 2.081.057 3.128.158a27.67 27.67 0 01-3.01 5.569l.008-.012a28.182 28.182 0 01-3.016-5.573zm7.941-8.3a28.578 28.578 0 01-.717 4.557 36.633 36.633 0 00-4.33-.272 34.682 34.682 0 00-4.101.264 28.139 28.139 0 01-.718-4.549zm-18.464 7.04a15.995 15.995 0 01-2.599-7.04h7.34a32.723 32.723 0 00.766 5.2 29.387 29.387 0 00-5.343 1.757c-.057.025-.108.053-.164.083zm2.708 3.12a26.191 26.191 0 013.914-1.24 31.071 31.071 0 002.143 4.633v-.003a16.105 16.105 0 01-6.057-3.39z"></path></symbol></svg>